<svg xmlns="http://www.w3.org/2000/svg" width="16" height="16" viewBox="0 0 16 16" class="icon__3e6C locationIcon__ua2L"><path fill-rule="evenodd" clip-rule="evenodd" d="M8 14A6 6 0 108 2a6 6 0 000 12zM8 3c-.25 0-.74.23-1.23 1.2-.12.24-.23.5-.32.8h3.1c-.1-.3-.2-.56-.32-.8C8.73 3.23 8.25 3 8 3zm1.81 3H6.2a10.42 10.42 0 000 4H9.8a10.42 10.42 0 000-4zm1.02 4a11.54 11.54 0 000-4h1.75a4.98 4.98 0 010 4h-1.75zm-1.28 1h-3.1c.1.3.2.56.32.8.5.97.98 1.2 1.23 1.2s.74-.23 1.23-1.2c.12-.24.23-.5.32-.8zm.36 1.62c.28-.45.51-1 .69-1.62H12a5.02 5.02 0 01-2.09 1.62zm0-9.24c.84.34 1.56.9 2.09 1.62h-1.4a6.83 6.83 0 00-.69-1.62zM6.1 12.62c-.28-.45-.51-1-.69-1.62H4a5.02 5.02 0 002.09 1.62zM5.17 10a11.53 11.53 0 010-4H3.42a4.98 4.98 0 000 4h1.75zm.23-5c.18-.62.41-1.17.69-1.62-.84.34-1.56.9-2.09 1.62h1.4z"></path></svg>