<svg viewBox="0 0 24 24" fill="#fff" xmlns="http://www.w3.org/2000/svg" class="socialIcon__148q"><path d="M16.05 12c0-2.25-1.8-4.05-4.05-4.05S7.95 9.75 7.95 12s1.8 4.05 4.05 4.05 4.05-1.8 4.05-4.05zm2.1 0c0 3.45-2.7 6.15-6.15 6.15S5.85 15.45 5.85 12 8.55 5.85 12 5.85s6.15 2.7 6.15 6.15zm1.65-6.45c0 .9-.6 1.5-1.5 1.5s-1.5-.6-1.5-1.5.6-1.5 1.5-1.5 1.5.75 1.5 1.5zM12 2.1c-1.8 0-5.55-.15-7.05.45C3.9 3 3 3.9 2.7 4.95c-.6 1.5-.45 5.25-.45 7.05 0 1.8-.15 5.55.45 7.05C3 20.1 3.9 21 4.95 21.3c1.5.6 5.4.45 7.05.45 1.65 0 5.55.15 7.05-.45 1.05-.45 1.8-1.2 2.25-2.25.6-1.65.45-5.4.45-7.05 0-1.65.15-5.55-.45-7.05C21 3.9 20.1 3 19.05 2.7c-1.5-.75-5.25-.6-7.05-.6zM24 12v4.95c0 1.8-.6 3.6-1.95 5.1C20.7 23.4 18.9 24 16.95 24h-9.9c-1.8 0-3.6-.6-5.1-1.95A7.691 7.691 0 010 16.95v-9.9C0 5.1.75 3.3 1.95 1.95 3.45.75 5.25 0 7.05 0h9.9c1.8 0 3.6.6 5.1 1.95A7.691 7.691 0 0124 7.05V12z"></path></svg>