<svg version="1.1" id="Layer_1" xmlns="http://www.w3.org/2000/svg" xmlns:xlink="http://www.w3.org/1999/xlink" x="0px" y="0px"
	 width="100%" viewBox="0 0 676 179" enable-background="new 0 0 676 179" xml:space="preserve">
<path fill="#FEFEFE" opacity="1.000000" stroke="none" 
	d="
M441.000000,180.000000 
	C294.000031,180.000000 147.500031,180.000000 1.000039,180.000000 
	C1.000026,120.333359 1.000026,60.666718 1.000013,1.000055 
	C226.333267,1.000037 451.666534,1.000037 676.999878,1.000018 
	C676.999878,60.666607 676.999878,120.333214 676.999939,179.999908 
	C598.500000,180.000000 520.000000,180.000000 441.000000,180.000000 
M471.351624,135.524246 
	C472.912140,138.257492 474.775513,140.866318 475.961578,143.753403 
	C477.706512,148.000839 480.565857,148.841919 484.925964,147.383072 
	C482.588837,143.182037 480.280334,139.032501 478.009308,134.950317 
	C482.987366,130.185547 484.374939,126.286789 481.926483,122.139030 
	C477.389709,114.453629 469.987885,116.989197 463.158051,117.043465 
	C463.158051,127.470871 463.158051,137.539688 463.158051,147.719452 
	C465.156311,147.719452 466.901001,147.719452 469.226074,147.719452 
	C469.226074,143.328278 469.226074,139.215942 470.052887,135.066544 
	C470.328125,135.047882 470.603394,135.029236 471.351624,135.524246 
M5.004058,98.500000 
	C5.004085,117.825096 4.993472,137.150208 5.008240,156.475281 
	C5.016721,167.572815 10.445368,172.969162 21.618959,172.971283 
	C71.097923,172.980682 120.576897,172.980133 170.055862,172.971603 
	C181.012360,172.969727 186.639084,167.440796 186.776764,156.431702 
	C186.872589,148.769485 186.796371,141.105103 186.796387,133.441696 
	C186.796417,97.790184 186.814774,62.138657 186.785828,26.487165 
	C186.776062,14.455965 181.338196,9.003693 169.510880,9.002998 
	C120.198502,9.000100 70.886131,8.997046 21.573753,9.005463 
	C10.413786,9.007367 5.014199,14.395235 5.008128,25.530592 
	C4.995048,49.520390 5.004081,73.510201 5.004058,98.500000 
M286.218445,75.114273 
	C284.666901,72.744186 284.403595,70.778671 287.174561,68.851204 
	C288.893890,67.655251 290.298096,65.821182 291.443787,64.019226 
	C295.449982,57.718090 295.171417,51.111843 292.197540,44.534496 
	C289.354919,38.247490 284.229645,35.463848 277.448120,35.478615 
	C274.287231,35.485500 271.108734,35.688313 267.969818,35.425289 
	C263.915009,35.085510 262.460999,36.471832 262.492615,40.721355 
	C262.624939,58.518829 262.412354,76.318779 262.354980,94.117905 
	C262.350281,95.570404 262.562592,97.023605 262.674225,98.478683 
	C266.290802,98.478683 269.498993,98.478683 273.309021,98.478683 
	C273.309021,90.396164 273.309021,82.774849 273.309021,75.153534 
	C277.552765,81.876640 280.710999,88.793129 284.064667,95.613510 
	C284.693176,96.891724 285.999725,98.550117 287.173035,98.709419 
	C290.342834,99.139763 293.609436,98.856735 297.992920,98.856735 
	C293.885681,90.517525 290.250519,83.136818 286.218445,75.114273 
M567.911438,86.627625 
	C565.465454,81.734100 563.019531,76.840576 560.592224,71.984276 
	C562.962708,69.284950 565.424744,66.995827 567.263916,64.284271 
	C571.617737,57.865295 571.183899,50.982868 567.869019,44.373627 
	C564.817139,38.288792 559.508850,35.623409 552.664978,35.970795 
	C549.839417,36.114212 546.978821,36.216797 544.172974,35.941902 
	C540.081482,35.541061 538.695496,36.976566 538.737061,41.213058 
	C538.911987,59.040497 538.740112,76.871254 538.724854,94.700821 
	C538.723755,95.974739 538.961853,97.248856 539.082764,98.462852 
	C542.503418,98.462852 545.561768,98.462852 549.094910,98.462852 
	C549.094910,90.558014 549.094910,83.015541 549.094910,75.473068 
	C550.574402,76.283852 551.314636,77.264351 551.833618,78.350563 
	C554.625366,84.193581 557.213684,90.140999 560.226624,95.865829 
	C560.942078,97.225143 562.917114,98.441956 564.487976,98.714439 
	C567.163513,99.178551 569.977905,98.842278 573.814270,98.842278 
	C571.628723,94.358467 569.913025,90.838676 567.911438,86.627625 
M640.014343,96.649323 
	C642.303284,90.725914 644.592163,84.802513 646.881104,78.879112 
	C650.014221,83.028084 651.857361,87.061653 653.571899,91.149170 
	C657.211914,99.827393 658.084717,100.291962 668.232056,98.148735 
	C667.701050,96.744751 667.286560,95.373123 666.680481,94.092178 
	C663.275574,86.895500 660.121216,79.557304 656.288696,72.593605 
	C653.565796,67.646004 653.854919,63.540691 656.539612,58.679058 
	C660.428406,51.637035 663.551880,44.172409 667.086670,36.709076 
	C656.104004,34.672359 655.737793,34.885960 651.889465,44.161484 
	C650.650146,47.148586 649.270142,50.077312 647.658142,53.698486 
	C645.918518,49.456947 644.543579,46.083115 643.152039,42.716114 
	C640.042053,35.190731 637.415771,34.071297 628.531128,36.936325 
	C631.098938,42.514095 632.975525,48.485065 636.328613,53.461052 
	C642.434631,62.522457 641.447876,70.780281 636.114807,79.641754 
	C632.575928,85.521912 629.956360,91.955307 626.216858,99.586708 
	C631.606079,98.724060 635.679749,98.071976 640.014343,96.649323 
M593.120483,43.548244 
	C589.167969,61.591461 585.215454,79.634682 581.239380,97.785408 
	C585.199707,97.785408 588.461365,97.785408 591.831726,97.785408 
	C592.439209,95.147171 592.989929,92.755295 593.526978,90.422737 
	C603.281128,87.911079 605.041748,88.751503 609.078674,97.757736 
	C612.148193,97.757736 615.217773,97.757736 618.682068,97.757736 
	C614.244507,76.986763 609.895630,56.630795 605.541626,36.250885 
	C601.783264,36.250885 598.375732,36.250885 594.829407,36.250885 
	C594.287109,38.550861 593.794983,40.638306 593.120483,43.548244 
M312.116272,87.644592 
	C310.340210,91.295494 308.564178,94.946404 306.757141,98.661057 
	C328.045044,98.661057 348.731934,98.661057 369.849487,98.661057 
	C359.284576,77.536674 348.948395,56.869656 338.253540,35.485466 
	C329.414673,53.150585 320.948303,70.071251 312.116272,87.644592 
M391.631226,88.983223 
	C392.223877,91.228920 392.972565,93.447021 393.375610,95.726250 
	C394.139069,100.043579 397.514465,98.641823 400.076385,98.900192 
	C402.503448,99.144974 404.410767,98.880280 405.202057,95.719109 
	C409.873749,77.055397 414.759857,58.445255 419.605225,39.825264 
	C420.243866,37.371025 419.757294,36.149208 416.896149,35.936928 
	C409.675598,35.401199 409.138397,35.638371 407.318329,42.676521 
	C406.446564,46.047668 405.722168,49.457069 404.940094,52.851246 
	C403.236816,60.243404 401.539368,67.636909 399.839539,75.029861 
	C398.584747,74.186935 398.244476,73.458374 398.070770,72.692047 
	C395.650391,62.012970 393.352753,51.304237 390.748932,40.670380 
	C390.326385,38.944881 388.835419,36.616524 387.373505,36.200615 
	C384.798859,35.468128 381.865662,35.995735 378.083954,35.995735 
	C382.619476,53.898392 386.968628,71.065430 391.631226,88.983223 
M454.286774,60.119648 
	C449.514252,59.606930 444.741699,59.094208 439.351349,58.515114 
	C439.593048,54.513577 439.835785,50.494732 440.110046,45.954079 
	C445.503174,45.954079 450.242798,45.954079 454.999939,45.954079 
	C454.999939,42.277100 454.999939,39.170025 454.999939,36.032585 
	C446.152710,36.032585 437.615082,36.032585 428.683319,36.032585 
	C428.683319,55.713783 428.724060,74.844421 428.642731,93.974533 
	C428.629364,97.122261 430.168854,98.028374 432.922058,98.015121 
	C438.750275,97.987076 444.580444,97.923172 450.406311,98.043304 
	C453.634155,98.109856 455.540863,97.161888 455.288483,93.538811 
	C455.052704,90.154327 456.065826,86.073242 450.522003,86.115143 
	C446.921234,86.142357 443.320129,86.120262 439.936127,86.120262 
	C439.936127,80.268684 439.936127,75.199341 439.936127,69.834732 
	C444.064362,69.834732 447.773193,70.285103 451.325836,69.732124 
	C457.054779,68.840401 454.359344,64.200546 454.286774,60.119648 
M226.757416,45.540527 
	C231.410675,44.865440 233.196701,46.511887 232.953186,51.528961 
	C232.421295,62.486805 232.431702,73.474617 232.388672,84.450851 
	C232.370102,89.184563 232.768463,93.919914 232.986404,98.858185 
	C234.524307,98.858185 235.509644,98.852364 236.494888,98.859131 
	C242.891312,98.903099 242.877731,98.903954 242.894455,92.402390 
	C242.926544,79.928230 242.977493,67.454124 243.016388,54.979977 
	C243.025513,52.050510 243.017746,49.120991 243.017746,46.287701 
	C254.666901,44.985291 254.666901,44.985291 253.581146,35.847736 
	C243.258163,35.847736 232.886017,35.847736 222.562592,35.847736 
	C220.965714,43.381519 221.414719,44.644337 226.757416,45.540527 
M480.545715,87.991531 
	C478.773438,87.991531 477.001160,87.991531 474.565308,87.991531 
	C474.565308,70.410545 474.565308,53.369049 474.565308,35.994278 
	C471.586578,35.994278 469.184937,35.614147 467.002991,36.142094 
	C465.766754,36.441212 463.993408,38.224693 463.986694,39.348717 
	C463.874786,58.145855 463.968048,76.944832 464.176270,95.741608 
	C464.187744,96.778618 465.574005,98.671188 466.362701,98.693901 
	C474.121399,98.917397 481.889099,98.828850 489.663147,98.828850 
	C489.663147,94.706306 489.663147,91.621498 489.663147,87.991531 
	C486.728088,87.991531 484.115784,87.991531 480.545715,87.991531 
M519.248047,61.508972 
	C519.248047,56.427227 519.248047,51.345478 519.248047,45.902245 
	C523.314575,45.902245 526.417908,45.902245 529.801758,45.902245 
	C529.801758,42.480049 529.801758,39.449871 529.801758,36.209633 
	C519.358643,36.209633 509.281219,36.209633 498.410156,36.209633 
	C498.547485,39.186558 497.638824,43.311832 499.029236,44.345978 
	C501.439178,46.138409 505.272644,46.016884 509.196411,46.842739 
	C509.196411,63.810070 509.196411,81.153435 509.196411,98.567940 
	C512.759521,98.567940 515.674316,98.567940 519.242981,98.567940 
	C519.242981,86.372116 519.242981,74.439285 519.248047,61.508972 
M344.569519,148.115982 
	C351.190582,148.121841 357.751373,147.997116 361.278198,140.864380 
	C367.520477,128.239777 360.058258,116.267563 346.077728,116.547058 
	C343.625641,116.596085 341.178955,116.914948 338.821014,117.101959 
	C338.821014,127.576736 338.821014,137.658218 338.821014,147.858154 
	C340.666107,147.942001 342.155365,148.009689 344.569519,148.115982 
M266.462799,131.986313 
	C268.858948,128.284424 269.320740,124.236977 266.580200,120.822624 
	C261.725433,114.774239 254.897537,116.792091 248.386719,117.054161 
	C248.386719,127.369431 248.386719,137.442581 248.386719,147.997467 
	C250.518387,147.899780 252.374725,147.814713 254.747574,147.705978 
	C254.747574,138.828934 254.747574,130.439941 254.747574,122.050949 
	C255.186691,121.725555 255.625824,121.400169 256.064941,121.074776 
	C257.801483,122.428917 261.150024,124.054695 260.976074,125.086899 
	C260.427063,128.344879 258.558167,131.380432 256.831268,135.349380 
	C265.208405,150.563019 262.765594,148.493927 270.340118,147.338287 
	C268.503815,144.062744 266.940186,140.794067 264.925812,137.831924 
	C263.313843,135.461517 263.795441,133.960556 266.462799,131.986313 
M454.328094,121.297142 
	C445.911652,113.092720 433.952942,115.736656 431.532928,126.652962 
	C430.670044,130.545319 430.893799,134.980835 431.799652,138.895844 
	C433.361115,145.644516 438.017120,148.460556 445.146057,148.115067 
	C451.397186,147.812119 456.350739,143.911942 456.742767,137.343201 
	C457.046783,132.248917 455.510468,127.044807 454.328094,121.297142 
M305.258057,121.436905 
	C300.298431,114.356590 293.163452,117.110947 286.451721,116.903358 
	C286.451721,127.384300 286.451721,137.458435 286.451721,147.659668 
	C288.578125,147.659668 290.437622,147.659668 292.653625,147.659668 
	C292.653625,144.362839 292.653625,141.423904 292.653625,138.556305 
	C305.706726,136.263931 308.324585,132.870270 305.258057,121.436905 
M325.507172,117.669952 
	C322.802094,116.880981 319.332581,115.020111 317.978271,118.749077 
	C314.550323,128.187714 311.765228,137.859818 308.611176,147.789276 
	C310.942169,147.789276 312.703339,147.789276 314.532318,147.789276 
	C315.022064,146.377151 315.098114,144.714050 315.959991,144.001663 
	C317.349335,142.853363 319.266327,141.684769 320.942780,141.709778 
	C323.021027,141.740768 326.612610,142.616638 326.883881,143.760132 
	C328.051117,148.680710 330.924286,148.505341 334.821411,147.578354 
	C331.787598,137.726303 328.817200,128.080154 325.507172,117.669952 
M373.255920,120.052528 
	C372.448517,114.845741 368.869995,117.273521 365.713287,117.118309 
	C368.831879,126.826012 371.735168,136.142059 374.903381,145.367126 
	C375.292053,146.498901 377.052338,147.768463 378.259033,147.857071 
	C379.782440,147.968948 382.454376,147.308304 382.796478,146.335709 
	C386.167694,136.750565 389.158112,127.031487 392.253937,117.358322 
	C387.439484,115.836487 385.433319,117.290543 384.518524,121.755165 
	C383.311493,127.646057 381.306915,133.373535 379.645203,139.171265 
	C379.327118,139.194565 379.009033,139.217850 378.690948,139.241135 
	C376.979492,133.102539 375.268005,126.963959 373.255920,120.052528 
M418.948486,141.510254 
	C415.280670,141.944824 411.612854,142.379410 407.327698,142.887131 
	C407.211273,143.709946 406.994843,145.239304 406.657806,147.621124 
	C411.459900,147.621124 415.778809,148.182175 419.882202,147.481247 
	C425.190186,146.574509 427.735870,141.977966 426.971771,136.618225 
	C426.282257,131.781494 422.288635,130.754410 418.769958,128.885300 
	C416.885925,127.884544 415.589630,125.777412 414.028107,124.169563 
	C416.297913,123.423920 418.528595,122.485390 420.854004,122.014153 
	C422.013794,121.779121 423.346832,122.399117 424.699890,122.650635 
	C425.163055,121.030670 425.546570,119.689270 426.334229,116.934273 
	C421.764404,116.934273 418.002472,116.629707 414.313446,117.017708 
	C410.423523,117.426834 408.157227,120.032433 407.532684,123.915382 
	C406.912048,127.774139 408.168488,130.822800 411.719727,132.660294 
	C413.331909,133.494476 415.066620,134.096649 416.760376,134.767166 
	C419.695587,135.929123 421.140778,137.737549 418.948486,141.510254 
M229.819412,135.502960 
	C229.819412,139.593323 229.819412,143.683670 229.819412,148.105225 
	C232.274292,147.916779 234.011230,147.783447 236.125061,147.621185 
	C236.125061,138.997437 236.125061,130.753464 236.125061,121.976654 
	C238.914062,121.976654 241.298096,121.976654 244.013474,121.976654 
	C243.841721,120.015610 243.720245,118.628593 243.593033,117.176117 
	C236.283249,117.176117 229.353287,117.176117 222.238007,117.176117 
	C222.238007,118.892159 222.238007,120.428055 222.238007,122.012215 
	C224.820023,122.142746 227.088013,122.257401 229.819412,122.395485 
	C229.819412,126.611000 229.819412,130.561203 229.819412,135.502960 
M274.029907,124.570251 
	C274.029907,132.300461 274.029907,140.030685 274.029907,147.694000 
	C276.440826,147.694000 278.177795,147.694000 280.021484,147.694000 
	C280.021484,137.358215 280.021484,127.331955 280.021484,117.048264 
	C278.832336,116.979935 277.866882,116.841347 276.911804,116.893303 
	C275.985870,116.943680 275.070587,117.189835 274.029907,117.371025 
	C274.029907,119.637222 274.029907,121.613411 274.029907,124.570251 
M402.038727,146.192886 
	C402.038727,136.483276 402.038727,126.773682 402.038727,116.855858 
	C399.638641,116.961876 397.891266,117.039062 396.157471,117.115654 
	C396.157471,127.548447 396.157471,137.578918 396.157471,148.325958 
	C398.330475,147.875595 400.128235,147.503006 402.038727,146.192886 
z"/>
<path fill="#65D7D6" opacity="1.000000" stroke="none" 
	d="
M5.004061,98.000000 
	C5.004081,73.510201 4.995048,49.520390 5.008128,25.530592 
	C5.014199,14.395235 10.413786,9.007367 21.573753,9.005463 
	C70.886131,8.997046 120.198502,9.000100 169.510880,9.002998 
	C181.338196,9.003693 186.776062,14.455965 186.785828,26.487165 
	C186.814774,62.138657 186.796417,97.790184 186.796387,133.441696 
	C186.796371,141.105103 186.872589,148.769485 186.776764,156.431702 
	C186.639084,167.440796 181.012360,172.969727 170.055862,172.971603 
	C120.576897,172.980133 71.097923,172.980682 21.618959,172.971283 
	C10.445368,172.969162 5.016721,167.572815 5.008240,156.475281 
	C4.993472,137.150208 5.004085,117.825096 5.004061,98.000000 
M87.004395,129.969559 
	C87.004395,129.969559 86.970863,129.953552 86.898911,130.669907 
	C93.969711,136.043350 101.813049,139.349808 110.821823,138.962875 
	C118.211998,138.645462 122.508102,133.052719 121.406441,125.724159 
	C121.194176,124.312126 121.201988,122.867004 121.117111,121.571983 
	C131.238937,119.070763 138.665390,113.303162 144.478409,105.587135 
	C150.556595,97.519150 147.936325,89.824783 138.421356,86.316185 
	C137.820770,86.094719 137.203537,85.918335 136.594040,85.720978 
	C137.053268,85.606712 137.512497,85.492447 137.971710,85.378181 
	C137.280212,77.393509 137.439194,69.219215 135.710480,61.465801 
	C132.630829,47.653366 122.726562,44.916424 112.296150,54.294586 
	C111.952354,54.603699 111.481926,54.771973 110.673615,55.231586 
	C109.760086,54.129646 108.866028,53.051182 108.538368,51.923965 
	C108.840973,51.729294 109.143578,51.534618 109.446190,51.339947 
	C109.064178,51.107559 108.682159,50.875172 108.024818,50.024231 
	C100.900970,47.122181 93.989212,43.350754 86.597321,41.547405 
	C78.156479,39.488148 71.224052,46.500530 72.737038,54.893204 
	C73.600960,59.685398 70.611465,61.141838 67.606354,61.704388 
	C60.718281,62.993832 56.002491,67.168617 51.926094,72.220428 
	C43.408081,82.776665 45.013447,89.582184 57.000309,95.568481 
	C57.012619,95.751030 57.024925,95.933571 57.060345,96.960884 
	C56.872635,98.443344 56.573975,99.921432 56.515282,101.408981 
	C56.143162,110.840546 56.723686,120.077965 62.981468,127.866943 
	C66.402565,132.125168 71.109390,133.105072 75.926338,130.570572 
	C79.287277,128.802200 82.394615,124.227135 86.062950,130.132156 
	C86.131454,130.242416 86.681343,130.053650 87.004395,129.969559 
z"/>
<path fill="#161616" opacity="1.000000" stroke="none" 
	d="
M286.416931,75.435196 
	C290.250519,83.136818 293.885681,90.517525 297.992920,98.856735 
	C293.609436,98.856735 290.342834,99.139763 287.173035,98.709419 
	C285.999725,98.550117 284.693176,96.891724 284.064667,95.613510 
	C280.710999,88.793129 277.552765,81.876640 273.309021,75.153534 
	C273.309021,82.774849 273.309021,90.396164 273.309021,98.478683 
	C269.498993,98.478683 266.290802,98.478683 262.674225,98.478683 
	C262.562592,97.023605 262.350281,95.570404 262.354980,94.117905 
	C262.412354,76.318779 262.624939,58.518829 262.492615,40.721355 
	C262.460999,36.471832 263.915009,35.085510 267.969818,35.425289 
	C271.108734,35.688313 274.287231,35.485500 277.448120,35.478615 
	C284.229645,35.463848 289.354919,38.247490 292.197540,44.534496 
	C295.171417,51.111843 295.449982,57.718090 291.443787,64.019226 
	C290.298096,65.821182 288.893890,67.655251 287.174561,68.851204 
	C284.403595,70.778671 284.666901,72.744186 286.416931,75.435196 
M281.893066,61.032307 
	C282.380859,59.123913 283.156494,57.237068 283.301270,55.302986 
	C283.698761,49.994133 280.972107,46.182709 276.584473,46.094414 
	C275.429657,46.071178 273.279816,47.504383 273.230347,48.363392 
	C272.919586,53.760334 273.073120,59.184006 273.073120,66.340614 
	C276.653107,64.368706 279.063080,63.041267 281.893066,61.032307 
z"/>
<path fill="#151515" opacity="1.000000" stroke="none" 
	d="
M568.054443,86.973251 
	C569.913025,90.838676 571.628723,94.358467 573.814270,98.842278 
	C569.977905,98.842278 567.163513,99.178551 564.487976,98.714439 
	C562.917114,98.441956 560.942078,97.225143 560.226624,95.865829 
	C557.213684,90.140999 554.625366,84.193581 551.833618,78.350563 
	C551.314636,77.264351 550.574402,76.283852 549.094910,75.473068 
	C549.094910,83.015541 549.094910,90.558014 549.094910,98.462852 
	C545.561768,98.462852 542.503418,98.462852 539.082764,98.462852 
	C538.961853,97.248856 538.723755,95.974739 538.724854,94.700821 
	C538.740112,76.871254 538.911987,59.040497 538.737061,41.213058 
	C538.695496,36.976566 540.081482,35.541061 544.172974,35.941902 
	C546.978821,36.216797 549.839417,36.114212 552.664978,35.970795 
	C559.508850,35.623409 564.817139,38.288792 567.869019,44.373627 
	C571.183899,50.982868 571.617737,57.865295 567.263916,64.284271 
	C565.424744,66.995827 562.962708,69.284950 560.592224,71.984276 
	C563.019531,76.840576 565.465454,81.734100 568.054443,86.973251 
M549.028137,58.400993 
	C549.028137,60.510105 549.028137,62.619213 549.028137,64.773247 
	C554.431519,65.679108 557.354126,63.472115 558.820068,59.210728 
	C560.525208,54.253616 558.940979,49.117519 555.386719,47.264400 
	C551.125732,45.042789 549.219299,46.144665 549.077026,50.956612 
	C549.013062,53.119228 549.045288,55.284687 549.028137,58.400993 
z"/>
<path fill="#161616" opacity="1.000000" stroke="none" 
	d="
M639.883911,97.034607 
	C635.679749,98.071976 631.606079,98.724060 626.216858,99.586708 
	C629.956360,91.955307 632.575928,85.521912 636.114807,79.641754 
	C641.447876,70.780281 642.434631,62.522457 636.328613,53.461052 
	C632.975525,48.485065 631.098938,42.514095 628.531128,36.936325 
	C637.415771,34.071297 640.042053,35.190731 643.152039,42.716114 
	C644.543579,46.083115 645.918518,49.456947 647.658142,53.698486 
	C649.270142,50.077312 650.650146,47.148586 651.889465,44.161484 
	C655.737793,34.885960 656.104004,34.672359 667.086670,36.709076 
	C663.551880,44.172409 660.428406,51.637035 656.539612,58.679058 
	C653.854919,63.540691 653.565796,67.646004 656.288696,72.593605 
	C660.121216,79.557304 663.275574,86.895500 666.680481,94.092178 
	C667.286560,95.373123 667.701050,96.744751 668.232056,98.148735 
	C658.084717,100.291962 657.211914,99.827393 653.571899,91.149170 
	C651.857361,87.061653 650.014221,83.028084 646.881104,78.879112 
	C644.592163,84.802513 642.303284,90.725914 639.883911,97.034607 
z"/>
<path fill="#161616" opacity="1.000000" stroke="none" 
	d="
M593.211670,43.136997 
	C593.794983,40.638306 594.287109,38.550861 594.829407,36.250885 
	C598.375732,36.250885 601.783264,36.250885 605.541626,36.250885 
	C609.895630,56.630795 614.244507,76.986763 618.682068,97.757736 
	C615.217773,97.757736 612.148193,97.757736 609.074585,97.756920 
	C605.041748,88.751503 603.281128,87.911079 593.526978,90.422737 
	C592.989929,92.755295 592.439209,95.147171 591.831726,97.785408 
	C588.461365,97.785408 585.199707,97.785408 581.239380,97.785408 
	C585.215454,79.634682 589.167969,61.591461 593.211670,43.136997 
M601.316223,66.420708 
	C601.063171,65.232048 600.810120,64.043388 600.557007,62.854725 
	C600.261108,62.831043 599.965149,62.807365 599.669189,62.783684 
	C598.462097,67.994499 597.255005,73.205315 595.981689,78.702057 
	C598.807617,78.702057 601.303162,78.702057 603.972107,78.702057 
	C603.120850,74.590538 602.350952,70.872200 601.316223,66.420708 
z"/>
<path fill="#191919" opacity="1.000000" stroke="none" 
	d="
M312.299072,87.318253 
	C320.948303,70.071251 329.414673,53.150585 338.253540,35.485466 
	C348.948395,56.869656 359.284576,77.536674 369.849487,98.661057 
	C348.731934,98.661057 328.045044,98.661057 306.757141,98.661057 
	C308.564178,94.946404 310.340210,91.295494 312.299072,87.318253 
M349.458130,93.537643 
	C353.199005,93.537643 356.939880,93.537643 360.724609,93.537643 
	C360.192932,88.990242 357.999817,87.958969 354.212677,88.059029 
	C344.256256,88.322105 334.288239,88.147919 323.598999,88.147919 
	C328.574890,78.296257 333.271820,68.996948 338.288818,59.063854 
	C341.546478,65.737198 344.352356,71.485077 347.440613,77.811432 
	C343.877441,77.811432 341.066284,78.058624 338.316650,77.752731 
	C334.324097,77.308578 333.228882,79.605385 332.605347,82.693176 
	C340.336670,82.693176 347.874084,82.693176 355.871490,82.693176 
	C349.968872,70.820244 344.288879,59.395100 338.231323,47.210526 
	C330.285767,63.057728 322.767365,78.053062 315.003693,93.537552 
	C326.818756,93.537552 337.645569,93.537552 349.458130,93.537643 
z"/>
<path fill="#171717" opacity="1.000000" stroke="none" 
	d="
M391.474518,88.607849 
	C386.968628,71.065430 382.619476,53.898392 378.083954,35.995735 
	C381.865662,35.995735 384.798859,35.468128 387.373505,36.200615 
	C388.835419,36.616524 390.326385,38.944881 390.748932,40.670380 
	C393.352753,51.304237 395.650391,62.012970 398.070770,72.692047 
	C398.244476,73.458374 398.584747,74.186935 399.839539,75.029861 
	C401.539368,67.636909 403.236816,60.243404 404.940094,52.851246 
	C405.722168,49.457069 406.446564,46.047668 407.318329,42.676521 
	C409.138397,35.638371 409.675598,35.401199 416.896149,35.936928 
	C419.757294,36.149208 420.243866,37.371025 419.605225,39.825264 
	C414.759857,58.445255 409.873749,77.055397 405.202057,95.719109 
	C404.410767,98.880280 402.503448,99.144974 400.076385,98.900192 
	C397.514465,98.641823 394.139069,100.043579 393.375610,95.726250 
	C392.972565,93.447021 392.223877,91.228920 391.474518,88.607849 
z"/>
<path fill="#171717" opacity="1.000000" stroke="none" 
	d="
M454.466003,60.524719 
	C454.359344,64.200546 457.054779,68.840401 451.325836,69.732124 
	C447.773193,70.285103 444.064362,69.834732 439.936127,69.834732 
	C439.936127,75.199341 439.936127,80.268684 439.936127,86.120262 
	C443.320129,86.120262 446.921234,86.142357 450.522003,86.115143 
	C456.065826,86.073242 455.052704,90.154327 455.288483,93.538811 
	C455.540863,97.161888 453.634155,98.109856 450.406311,98.043304 
	C444.580444,97.923172 438.750275,97.987076 432.922058,98.015121 
	C430.168854,98.028374 428.629364,97.122261 428.642731,93.974533 
	C428.724060,74.844421 428.683319,55.713783 428.683319,36.032585 
	C437.615082,36.032585 446.152710,36.032585 454.999939,36.032585 
	C454.999939,39.170025 454.999939,42.277100 454.999939,45.954079 
	C450.242798,45.954079 445.503174,45.954079 440.110046,45.954079 
	C439.835785,50.494732 439.593048,54.513577 439.351349,58.515114 
	C444.741699,59.094208 449.514252,59.606930 454.466003,60.524719 
z"/>
<path fill="#1B1B1B" opacity="1.000000" stroke="none" 
	d="
M226.314148,45.539726 
	C221.414719,44.644337 220.965714,43.381519 222.562592,35.847736 
	C232.886017,35.847736 243.258163,35.847736 253.581146,35.847736 
	C254.666901,44.985291 254.666901,44.985291 243.017746,46.287701 
	C243.017746,49.120991 243.025513,52.050510 243.016388,54.979977 
	C242.977493,67.454124 242.926544,79.928230 242.894455,92.402390 
	C242.877731,98.903954 242.891312,98.903099 236.494888,98.859131 
	C235.509644,98.852364 234.524307,98.858185 232.986404,98.858185 
	C232.768463,93.919914 232.370102,89.184563 232.388672,84.450851 
	C232.431702,73.474617 232.421295,62.486805 232.953186,51.528961 
	C233.196701,46.511887 231.410675,44.865440 226.314148,45.539726 
z"/>
<path fill="#161616" opacity="1.000000" stroke="none" 
	d="
M481.024597,87.991531 
	C484.115784,87.991531 486.728088,87.991531 489.663147,87.991531 
	C489.663147,91.621498 489.663147,94.706306 489.663147,98.828850 
	C481.889099,98.828850 474.121399,98.917397 466.362701,98.693901 
	C465.574005,98.671188 464.187744,96.778618 464.176270,95.741608 
	C463.968048,76.944832 463.874786,58.145855 463.986694,39.348717 
	C463.993408,38.224693 465.766754,36.441212 467.002991,36.142094 
	C469.184937,35.614147 471.586578,35.994278 474.565308,35.994278 
	C474.565308,53.369049 474.565308,70.410545 474.565308,87.991531 
	C477.001160,87.991531 478.773438,87.991531 481.024597,87.991531 
z"/>
<path fill="#141414" opacity="1.000000" stroke="none" 
	d="
M519.245483,62.007713 
	C519.242981,74.439285 519.242981,86.372116 519.242981,98.567940 
	C515.674316,98.567940 512.759521,98.567940 509.196411,98.567940 
	C509.196411,81.153435 509.196411,63.810070 509.196411,46.842739 
	C505.272644,46.016884 501.439178,46.138409 499.029236,44.345978 
	C497.638824,43.311832 498.547485,39.186558 498.410156,36.209633 
	C509.281219,36.209633 519.358643,36.209633 529.801758,36.209633 
	C529.801758,39.449871 529.801758,42.480049 529.801758,45.902245 
	C526.417908,45.902245 523.314575,45.902245 519.248047,45.902245 
	C519.248047,51.345478 519.248047,56.427227 519.245483,62.007713 
z"/>
<path fill="#1D1D1D" opacity="1.000000" stroke="none" 
	d="
M344.107056,148.096680 
	C342.155365,148.009689 340.666107,147.942001 338.821014,147.858154 
	C338.821014,137.658218 338.821014,127.576736 338.821014,117.101959 
	C341.178955,116.914948 343.625641,116.596085 346.077728,116.547058 
	C360.058258,116.267563 367.520477,128.239777 361.278198,140.864380 
	C357.751373,147.997116 351.190582,148.121841 344.107056,148.096680 
M354.624115,125.142082 
	C351.659668,123.832596 348.695221,122.523117 345.097656,120.933975 
	C345.097656,129.136246 345.097656,135.869629 345.097656,142.584732 
	C351.890930,143.151016 355.426941,141.235123 355.912842,136.048828 
	C356.225250,132.714218 355.351990,129.268524 354.624115,125.142082 
z"/>
<path fill="#212121" opacity="1.000000" stroke="none" 
	d="
M266.216309,132.276611 
	C263.795441,133.960556 263.313843,135.461517 264.925812,137.831924 
	C266.940186,140.794067 268.503815,144.062744 270.340118,147.338287 
	C262.765594,148.493927 265.208405,150.563019 256.831268,135.349380 
	C258.558167,131.380432 260.427063,128.344879 260.976074,125.086899 
	C261.150024,124.054695 257.801483,122.428917 256.064941,121.074776 
	C255.625824,121.400169 255.186691,121.725555 254.747574,122.050949 
	C254.747574,130.439941 254.747574,138.828934 254.747574,147.705978 
	C252.374725,147.814713 250.518387,147.899780 248.386719,147.997467 
	C248.386719,137.442581 248.386719,127.369431 248.386719,117.054161 
	C254.897537,116.792091 261.725433,114.774239 266.580200,120.822624 
	C269.320740,124.236977 268.858948,128.284424 266.216309,132.276611 
z"/>
<path fill="#191919" opacity="1.000000" stroke="none" 
	d="
M454.560120,121.593323 
	C455.510468,127.044807 457.046783,132.248917 456.742767,137.343201 
	C456.350739,143.911942 451.397186,147.812119 445.146057,148.115067 
	C438.017120,148.460556 433.361115,145.644516 431.799652,138.895844 
	C430.893799,134.980835 430.670044,130.545319 431.532928,126.652962 
	C433.952942,115.736656 445.911652,113.092720 454.560120,121.593323 
M439.055786,124.746880 
	C438.732056,129.110703 437.766968,133.566086 438.371124,137.797424 
	C438.648712,139.741669 441.983246,142.549698 443.970215,142.581879 
	C445.934631,142.613724 449.010498,139.987411 449.690521,137.904190 
	C450.711060,134.777786 450.582977,131.020004 450.016876,127.688110 
	C448.992676,121.660172 444.671661,120.350357 439.055786,124.746880 
z"/>
<path fill="#171717" opacity="1.000000" stroke="none" 
	d="
M469.226074,135.103592 
	C469.226074,139.215942 469.226074,143.328278 469.226074,147.719452 
	C466.901001,147.719452 465.156311,147.719452 463.158051,147.719452 
	C463.158051,137.539688 463.158051,127.470871 463.158051,117.043465 
	C469.987885,116.989197 477.389709,114.453629 481.926483,122.139030 
	C484.374939,126.286789 482.987366,130.185547 478.009308,134.950317 
	C480.280334,139.032501 482.588837,143.182037 484.925964,147.383072 
	C480.565857,148.841919 477.706512,148.000839 475.961578,143.753403 
	C474.775513,140.866318 472.912140,138.257492 471.115234,134.889313 
	C471.623871,133.517822 472.645874,132.910110 473.060211,132.019653 
	C474.151733,129.673660 475.915588,127.064392 475.580994,124.834709 
	C475.360107,123.362709 471.971832,122.366035 469.226074,120.680374 
	C469.226074,126.550507 469.226074,130.827057 469.226074,135.103592 
z"/>
<path fill="#212121" opacity="1.000000" stroke="none" 
	d="
M305.468994,121.756546 
	C308.324585,132.870270 305.706726,136.263931 292.653625,138.556305 
	C292.653625,141.423904 292.653625,144.362839 292.653625,147.659668 
	C290.437622,147.659668 288.578125,147.659668 286.451721,147.659668 
	C286.451721,137.458435 286.451721,127.384300 286.451721,116.903358 
	C293.163452,117.110947 300.298431,114.356590 305.468994,121.756546 
M298.956085,123.520660 
	C297.012665,122.878052 295.069244,122.235435 292.999084,121.550903 
	C292.999084,125.947006 292.999084,129.299164 292.999084,132.658524 
	C299.695190,132.342438 300.879578,130.694504 298.956085,123.520660 
z"/>
<path fill="#1C1C1C" opacity="1.000000" stroke="none" 
	d="
M325.677002,118.051987 
	C328.817200,128.080154 331.787598,137.726303 334.821411,147.578354 
	C330.924286,148.505341 328.051117,148.680710 326.883881,143.760132 
	C326.612610,142.616638 323.021027,141.740768 320.942780,141.709778 
	C319.266327,141.684769 317.349335,142.853363 315.959991,144.001663 
	C315.098114,144.714050 315.022064,146.377151 314.532318,147.789276 
	C312.703339,147.789276 310.942169,147.789276 308.611176,147.789276 
	C311.765228,137.859818 314.550323,128.187714 317.978271,118.749077 
	C319.332581,115.020111 322.802094,116.880981 325.677002,118.051987 
M320.035553,128.721390 
	C319.378906,131.203125 318.722260,133.684845 318.017212,136.349579 
	C320.558044,136.349579 322.633667,136.349579 325.221588,136.349579 
	C324.035461,132.184250 322.955231,128.390884 321.655487,123.826630 
	C320.967499,125.821716 320.593719,126.905663 320.035553,128.721390 
z"/>
<path fill="#1A1A1A" opacity="1.000000" stroke="none" 
	d="
M373.406219,120.438950 
	C375.268005,126.963959 376.979492,133.102539 378.690948,139.241135 
	C379.009033,139.217850 379.327118,139.194565 379.645203,139.171265 
	C381.306915,133.373535 383.311493,127.646057 384.518524,121.755165 
	C385.433319,117.290543 387.439484,115.836487 392.253937,117.358322 
	C389.158112,127.031487 386.167694,136.750565 382.796478,146.335709 
	C382.454376,147.308304 379.782440,147.968948 378.259033,147.857071 
	C377.052338,147.768463 375.292053,146.498901 374.903381,145.367126 
	C371.735168,136.142059 368.831879,126.826012 365.713287,117.118309 
	C368.869995,117.273521 372.448517,114.845741 373.406219,120.438950 
z"/>
<path fill="#1B1B1B" opacity="1.000000" stroke="none" 
	d="
M419.238434,141.220581 
	C421.140778,137.737549 419.695587,135.929123 416.760376,134.767166 
	C415.066620,134.096649 413.331909,133.494476 411.719727,132.660294 
	C408.168488,130.822800 406.912048,127.774139 407.532684,123.915382 
	C408.157227,120.032433 410.423523,117.426834 414.313446,117.017708 
	C418.002472,116.629707 421.764404,116.934273 426.334229,116.934273 
	C425.546570,119.689270 425.163055,121.030670 424.699890,122.650635 
	C423.346832,122.399117 422.013794,121.779121 420.854004,122.014153 
	C418.528595,122.485390 416.297913,123.423920 414.028107,124.169563 
	C415.589630,125.777412 416.885925,127.884544 418.769958,128.885300 
	C422.288635,130.754410 426.282257,131.781494 426.971771,136.618225 
	C427.735870,141.977966 425.190186,146.574509 419.882202,147.481247 
	C415.778809,148.182175 411.459900,147.621124 406.657806,147.621124 
	C406.994843,145.239304 407.211273,143.709946 407.327698,142.887131 
	C411.612854,142.379410 415.280670,141.944824 419.238434,141.220581 
z"/>
<path fill="#121212" opacity="1.000000" stroke="none" 
	d="
M229.819412,135.007187 
	C229.819412,130.561203 229.819412,126.611000 229.819412,122.395485 
	C227.088013,122.257401 224.820023,122.142746 222.238007,122.012215 
	C222.238007,120.428055 222.238007,118.892159 222.238007,117.176117 
	C229.353287,117.176117 236.283249,117.176117 243.593033,117.176117 
	C243.720245,118.628593 243.841721,120.015610 244.013474,121.976654 
	C241.298096,121.976654 238.914062,121.976654 236.125061,121.976654 
	C236.125061,130.753464 236.125061,138.997437 236.125061,147.621185 
	C234.011230,147.783447 232.274292,147.916779 229.819412,148.105225 
	C229.819412,143.683670 229.819412,139.593323 229.819412,135.007187 
z"/>
<path fill="#141414" opacity="1.000000" stroke="none" 
	d="
M274.029907,124.079926 
	C274.029907,121.613411 274.029907,119.637222 274.029907,117.371025 
	C275.070587,117.189835 275.985870,116.943680 276.911804,116.893303 
	C277.866882,116.841347 278.832336,116.979935 280.021484,117.048264 
	C280.021484,127.331955 280.021484,137.358215 280.021484,147.694000 
	C278.177795,147.694000 276.440826,147.694000 274.029907,147.694000 
	C274.029907,140.030685 274.029907,132.300461 274.029907,124.079926 
z"/>
<path fill="#111111" opacity="1.000000" stroke="none" 
	d="
M401.982361,146.661652 
	C400.128235,147.503006 398.330475,147.875595 396.157471,148.325958 
	C396.157471,137.578918 396.157471,127.548447 396.157471,117.115654 
	C397.891266,117.039062 399.638641,116.961876 402.038727,116.855858 
	C402.038727,126.773682 402.038727,136.483276 401.982361,146.661652 
z"/>
<path fill="#F3F3F3" opacity="1.000000" stroke="none" 
	d="
M469.639465,135.085068 
	C469.226074,130.827057 469.226074,126.550507 469.226074,120.680374 
	C471.971832,122.366035 475.360107,123.362709 475.580994,124.834709 
	C475.915588,127.064392 474.151733,129.673660 473.060211,132.019653 
	C472.645874,132.910110 471.623871,133.517822 470.878723,134.632477 
	C470.603394,135.029236 470.328125,135.047882 469.639465,135.085068 
z"/>
<path fill="#F8FDFD" opacity="1.000000" stroke="none" 
	d="
M56.992565,95.019653 
	C45.013447,89.582184 43.408081,82.776665 51.926094,72.220428 
	C56.002491,67.168617 60.718281,62.993832 67.606354,61.704388 
	C70.611465,61.141838 73.600960,59.685398 72.737038,54.893204 
	C71.224052,46.500530 78.156479,39.488148 86.597321,41.547405 
	C93.989212,43.350754 100.900970,47.122181 108.059036,50.456661 
	C108.093262,50.889091 107.877083,51.127281 107.542938,51.102257 
	C106.550339,50.960056 105.891876,50.842873 104.976471,50.469261 
	C97.963234,48.827778 91.247673,46.652924 84.438065,46.301739 
	C78.752113,46.008507 77.052803,50.071083 79.936470,54.844860 
	C87.850235,51.346722 96.143242,50.187466 105.016357,51.525497 
	C106.200012,51.843403 107.115776,51.932354 108.016251,52.009636 
	C108.000961,51.997963 107.971962,51.972721 107.971962,51.972721 
	C108.866028,53.051182 109.760086,54.129646 110.673615,55.231586 
	C111.481926,54.771973 111.952354,54.603699 112.296150,54.294586 
	C122.726562,44.916424 132.630829,47.653366 135.710480,61.465801 
	C137.439194,69.219215 137.280212,77.393509 137.971710,85.378181 
	C137.512497,85.492447 137.053268,85.606712 136.594040,85.720978 
	C137.203537,85.918335 137.820770,86.094719 138.421356,86.316185 
	C147.936325,89.824783 150.556595,97.519150 144.478409,105.587135 
	C138.665390,113.303162 131.238937,119.070763 121.117111,121.571983 
	C121.201988,122.867004 121.194176,124.312126 121.406441,125.724159 
	C122.508102,133.052719 118.211998,138.645462 110.821823,138.962875 
	C101.813049,139.349808 93.969711,136.043350 87.319778,130.330673 
	C89.132416,130.492950 90.503479,131.064301 91.919502,131.483932 
	C98.212128,133.348709 104.352913,136.396988 111.210526,134.133026 
	C115.698235,132.651443 116.696190,130.370407 115.316162,127.261589 
	C105.931389,127.900406 97.020546,128.496719 88.113708,129.147797 
	C87.725876,129.176147 87.374817,129.707397 87.006622,130.004395 
	C86.681343,130.053650 86.131454,130.242416 86.062950,130.132156 
	C82.394615,124.227135 79.287277,128.802200 75.926338,130.570572 
	C71.109390,133.105072 66.402565,132.125168 62.981468,127.866943 
	C56.723686,120.077965 56.143162,110.840546 56.515282,101.408981 
	C56.573975,99.921432 56.872635,98.443344 57.344444,96.793594 
	C59.413345,104.455170 60.901360,112.371178 63.159267,120.061134 
	C63.859497,122.445969 66.365242,124.666534 68.601303,126.083313 
	C69.753960,126.813644 72.349480,125.989319 73.848129,125.109566 
	C74.483276,124.736710 73.975304,122.416580 74.305099,120.841873 
	C75.865219,120.264122 77.868256,120.153381 78.221199,119.332863 
	C80.038094,115.109016 81.882011,110.803566 82.878548,106.339546 
	C84.932381,97.139343 82.781967,94.858040 73.068840,94.959213 
	C71.746635,94.972984 70.395111,94.946198 69.109802,95.202362 
	C65.399483,95.941826 63.207748,98.443535 64.558807,101.964165 
	C66.481522,106.974480 69.346504,111.622238 71.792542,116.433235 
	C72.561760,117.946175 73.278252,119.485924 73.670334,121.013519 
	C65.873817,114.931335 59.383453,108.335434 59.681580,97.654015 
	C59.705372,96.801582 57.931190,95.898956 56.992565,95.019653 
M64.985176,64.796181 
	C59.032261,68.760895 54.100716,73.593323 51.967590,80.660103 
	C50.655224,85.007820 52.364204,87.169594 56.364651,87.595825 
	C59.727989,79.947670 62.970924,72.573296 66.568649,64.943840 
	C66.264549,64.844521 65.960449,64.745209 64.985176,64.796181 
M127.735573,116.967476 
	C133.596176,112.766319 139.031738,108.140053 141.823364,101.239677 
	C144.007706,95.840401 142.385193,93.398430 136.248428,92.686844 
	C135.271576,101.561966 132.156281,109.649185 126.490005,116.995934 
	C126.503769,117.199036 126.517532,117.402145 126.531303,117.605247 
	C126.706223,117.425346 126.881149,117.245453 127.735573,116.967476 
M110.370537,98.085754 
	C110.182968,103.441216 111.848671,108.082657 115.423508,112.131714 
	C117.916656,114.955597 120.805527,114.991570 123.346840,112.944344 
	C129.821030,107.728889 132.700729,100.522240 134.196106,92.527199 
	C126.491867,91.219284 121.747871,92.275154 110.370537,98.085754 
M123.767006,85.275948 
	C129.661667,84.431282 131.012665,82.334045 129.346527,76.506805 
	C127.316368,69.406433 122.658813,64.105515 116.525757,57.689522 
	C114.484108,64.051537 112.396812,69.197807 111.217293,74.544350 
	C109.371498,82.911064 111.286598,85.100182 120.029213,85.848801 
	C120.993027,85.931328 121.989227,85.635643 123.767006,85.275948 
M64.535675,75.154869 
	C62.844276,79.466042 61.152882,83.777206 59.461483,88.088379 
	C59.925411,88.566742 60.389339,89.045105 60.853268,89.523468 
	C66.236221,88.228722 71.704689,87.209938 76.982124,85.574661 
	C84.942085,83.108162 85.463348,82.209114 82.180382,74.403862 
	C80.864647,71.275703 78.093170,66.841293 75.644669,66.610893 
	C72.809013,66.344070 69.553917,69.985764 66.583847,72.076874 
	C65.827385,72.609474 65.460381,73.695244 64.535675,75.154869 
M112.154442,119.505562 
	C109.733803,116.770164 107.485214,113.855705 104.859901,111.333328 
	C97.337311,104.105667 92.835968,105.073135 88.277901,114.693008 
	C88.065483,115.141327 87.939720,115.630135 87.763519,116.096275 
	C85.974815,120.828224 87.111046,123.310623 91.979179,124.776031 
	C99.399506,127.009705 106.643494,126.002251 114.167046,123.467514 
	C113.539238,122.147728 113.054314,121.128311 112.154442,119.505562 
M101.612358,55.374966 
	C94.356888,54.301456 87.219101,54.467033 79.888634,57.005798 
	C83.643829,65.486198 90.205475,70.406494 97.984146,75.767197 
	C100.810677,72.000801 103.886871,68.742714 105.954636,64.936745 
	C108.630478,60.011547 107.725624,58.405270 101.612358,55.374966 
M123.491791,53.942356 
	C121.886147,54.779221 120.280502,55.616085 119.114891,56.223602 
	C124.774590,63.142292 129.936630,69.452621 134.753159,75.340584 
	C135.853638,67.196671 131.201141,57.266289 123.491791,53.942356 
M92.866920,87.619629 
	C93.168304,89.691971 92.773323,92.361656 93.925179,93.704475 
	C95.932777,96.044914 99.117882,95.454178 100.799690,93.143631 
	C101.776932,91.801056 102.003822,88.623795 101.076828,87.449524 
	C99.092392,84.935730 96.106552,84.353836 92.866920,87.619629 
M123.793037,118.153770 
	C123.880638,118.392197 123.968239,118.630630 124.055824,118.869064 
	C124.140648,118.627327 124.225471,118.385590 123.793037,118.153770 
z"/>
<path fill="#6FDAD9" opacity="1.000000" stroke="none" 
	d="
M56.996437,95.294067 
	C57.931190,95.898956 59.705372,96.801582 59.681580,97.654015 
	C59.383453,108.335434 65.873817,114.931335 73.657173,121.010681 
	C73.992554,121.007736 73.986885,120.981483 73.986885,120.981483 
	C73.975304,122.416580 74.483276,124.736710 73.848129,125.109566 
	C72.349480,125.989319 69.753960,126.813644 68.601303,126.083313 
	C66.365242,124.666534 63.859497,122.445969 63.159267,120.061134 
	C60.901360,112.371178 59.413345,104.455170 57.332886,96.371208 
	C57.024925,95.933571 57.012619,95.751030 56.996437,95.294067 
z"/>
<path fill="#F8FDFD" opacity="1.000000" stroke="none" 
	d="
M108.196701,50.765938 
	C108.682159,50.875172 109.064178,51.107559 109.446190,51.339943 
	C109.143578,51.534618 108.840973,51.729294 108.255165,51.948341 
	C107.971962,51.972721 108.000961,51.997963 107.977036,51.786263 
	C107.953102,51.574558 107.877083,51.127281 107.877083,51.127281 
	C107.877083,51.127281 108.093262,50.889091 108.196701,50.765938 
z"/>
<path fill="#F8F8F8" opacity="1.000000" stroke="none" 
	d="
M281.683044,61.373070 
	C279.063080,63.041267 276.653107,64.368706 273.073120,66.340614 
	C273.073120,59.184006 272.919586,53.760334 273.230347,48.363392 
	C273.279816,47.504383 275.429657,46.071178 276.584473,46.094414 
	C280.972107,46.182709 283.698761,49.994133 283.301270,55.302986 
	C283.156494,57.237068 282.380859,59.123913 281.683044,61.373070 
z"/>
<path fill="#F8F8F8" opacity="1.000000" stroke="none" 
	d="
M549.031006,57.924927 
	C549.045288,55.284687 549.013062,53.119228 549.077026,50.956612 
	C549.219299,46.144665 551.125732,45.042789 555.386719,47.264400 
	C558.940979,49.117519 560.525208,54.253616 558.820068,59.210728 
	C557.354126,63.472115 554.431519,65.679108 549.028137,64.773247 
	C549.028137,62.619213 549.028137,60.510105 549.031006,57.924927 
z"/>
<path fill="#F0F0F0" opacity="1.000000" stroke="none" 
	d="
M601.448669,66.787277 
	C602.350952,70.872200 603.120850,74.590538 603.972107,78.702057 
	C601.303162,78.702057 598.807617,78.702057 595.981689,78.702057 
	C597.255005,73.205315 598.462097,67.994499 599.669189,62.783684 
	C599.965149,62.807365 600.261108,62.831043 600.557007,62.854725 
	C600.810120,64.043388 601.063171,65.232048 601.448669,66.787277 
z"/>
<path fill="#F0F0F0" opacity="1.000000" stroke="none" 
	d="
M348.965271,93.537598 
	C337.645569,93.537552 326.818756,93.537552 315.003693,93.537552 
	C322.767365,78.053062 330.285767,63.057728 338.231323,47.210526 
	C344.288879,59.395100 349.968872,70.820244 355.871490,82.693176 
	C347.874084,82.693176 340.336670,82.693176 332.605347,82.693176 
	C333.228882,79.605385 334.324097,77.308578 338.316650,77.752731 
	C341.066284,78.058624 343.877441,77.811432 347.440613,77.811432 
	C344.352356,71.485077 341.546478,65.737198 338.288818,59.063854 
	C333.271820,68.996948 328.574890,78.296257 323.598999,88.147919 
	C334.288239,88.147919 344.256256,88.322105 354.212677,88.059029 
	C357.999817,87.958969 360.192932,88.990242 360.724609,93.537643 
	C356.939880,93.537643 353.199005,93.537643 348.965271,93.537598 
z"/>
<path fill="#FBFBFB" opacity="1.000000" stroke="none" 
	d="
M354.817139,125.507355 
	C355.351990,129.268524 356.225250,132.714218 355.912842,136.048828 
	C355.426941,141.235123 351.890930,143.151016 345.097656,142.584732 
	C345.097656,135.869629 345.097656,129.136246 345.097656,120.933975 
	C348.695221,122.523117 351.659668,123.832596 354.817139,125.507355 
z"/>
<path fill="#F6F6F6" opacity="1.000000" stroke="none" 
	d="
M439.280182,124.419693 
	C444.671661,120.350357 448.992676,121.660172 450.016876,127.688110 
	C450.582977,131.020004 450.711060,134.777786 449.690521,137.904190 
	C449.010498,139.987411 445.934631,142.613724 443.970215,142.581879 
	C441.983246,142.549698 438.648712,139.741669 438.371124,137.797424 
	C437.766968,133.566086 438.732056,129.110703 439.280182,124.419693 
z"/>
<path fill="#F3F3F3" opacity="1.000000" stroke="none" 
	d="
M299.190430,123.872726 
	C300.879578,130.694504 299.695190,132.342438 292.999084,132.658524 
	C292.999084,129.299164 292.999084,125.947006 292.999084,121.550903 
	C295.069244,122.235435 297.012665,122.878052 299.190430,123.872726 
z"/>
<path fill="#DEDEDE" opacity="1.000000" stroke="none" 
	d="
M320.127747,128.355499 
	C320.593719,126.905663 320.967499,125.821716 321.655487,123.826630 
	C322.955231,128.390884 324.035461,132.184250 325.221588,136.349579 
	C322.633667,136.349579 320.558044,136.349579 318.017212,136.349579 
	C318.722260,133.684845 319.378906,131.203125 320.127747,128.355499 
z"/>
<path fill="#67D8D7" opacity="1.000000" stroke="none" 
	d="
M110.629684,97.793213 
	C121.747871,92.275154 126.491867,91.219284 134.196106,92.527199 
	C132.700729,100.522240 129.821030,107.728889 123.346840,112.944344 
	C120.805527,114.991570 117.916656,114.955597 115.423508,112.131714 
	C111.848671,108.082657 110.182968,103.441216 110.629684,97.793213 
z"/>
<path fill="#68D8D7" opacity="1.000000" stroke="none" 
	d="
M123.368706,85.395660 
	C121.989227,85.635643 120.993027,85.931328 120.029213,85.848801 
	C111.286598,85.100182 109.371498,82.911064 111.217293,74.544350 
	C112.396812,69.197807 114.484108,64.051537 116.525757,57.689522 
	C122.658813,64.105515 127.316368,69.406433 129.346527,76.506805 
	C131.012665,82.334045 129.661667,84.431282 123.368706,85.395660 
z"/>
<path fill="#68D8D7" opacity="1.000000" stroke="none" 
	d="
M64.725052,74.840858 
	C65.460381,73.695244 65.827385,72.609474 66.583847,72.076874 
	C69.553917,69.985764 72.809013,66.344070 75.644669,66.610893 
	C78.093170,66.841293 80.864647,71.275703 82.180382,74.403862 
	C85.463348,82.209114 84.942085,83.108162 76.982124,85.574661 
	C71.704689,87.209938 66.236221,88.228722 60.853268,89.523468 
	C60.389339,89.045105 59.925411,88.566742 59.461483,88.088379 
	C61.152882,83.777206 62.844276,79.466042 64.725052,74.840858 
z"/>
<path fill="#68D8D7" opacity="1.000000" stroke="none" 
	d="
M112.361916,119.807228 
	C113.054314,121.128311 113.539238,122.147728 114.167046,123.467514 
	C106.643494,126.002251 99.399506,127.009705 91.979179,124.776031 
	C87.111046,123.310623 85.974815,120.828224 87.763519,116.096275 
	C87.939720,115.630135 88.065483,115.141327 88.277901,114.693008 
	C92.835968,105.073135 97.337311,104.105667 104.859901,111.333328 
	C107.485214,113.855705 109.733803,116.770164 112.361916,119.807228 
z"/>
<path fill="#68D8D7" opacity="1.000000" stroke="none" 
	d="
M74.005714,121.010574 
	C73.278252,119.485924 72.561760,117.946175 71.792542,116.433235 
	C69.346504,111.622238 66.481522,106.974480 64.558807,101.964165 
	C63.207748,98.443535 65.399483,95.941826 69.109802,95.202362 
	C70.395111,94.946198 71.746635,94.972984 73.068840,94.959213 
	C82.781967,94.858040 84.932381,97.139343 82.878548,106.339546 
	C81.882011,110.803566 80.038094,115.109016 78.221199,119.332863 
	C77.868256,120.153381 75.865219,120.264122 74.305099,120.841873 
	C73.986885,120.981483 73.992554,121.007736 74.005714,121.010574 
z"/>
<path fill="#67D8D7" opacity="1.000000" stroke="none" 
	d="
M102.007233,55.533531 
	C107.725624,58.405270 108.630478,60.011547 105.954636,64.936745 
	C103.886871,68.742714 100.810677,72.000801 97.984146,75.767197 
	C90.205475,70.406494 83.643829,65.486198 79.888634,57.005798 
	C87.219101,54.467033 94.356888,54.301456 102.007233,55.533531 
z"/>
<path fill="#6FDAD9" opacity="1.000000" stroke="none" 
	d="
M126.862480,116.869926 
	C132.156281,109.649185 135.271576,101.561966 136.248428,92.686844 
	C142.385193,93.398430 144.007706,95.840401 141.823364,101.239677 
	C139.031738,108.140053 133.596176,112.766319 127.348495,116.966553 
	C126.961418,116.965622 126.862480,116.869926 126.862480,116.869926 
z"/>
<path fill="#6FDAD9" opacity="1.000000" stroke="none" 
	d="
M87.005508,129.986969 
	C87.374817,129.707397 87.725876,129.176147 88.113708,129.147797 
	C97.020546,128.496719 105.931389,127.900406 115.316162,127.261589 
	C116.696190,130.370407 115.698235,132.651443 111.210526,134.133026 
	C104.352913,136.396988 98.212128,133.348709 91.919502,131.483932 
	C90.503479,131.064301 89.132416,130.492950 87.355759,129.972504 
	C86.970863,129.953552 87.004395,129.969559 87.005508,129.986969 
z"/>
<path fill="#6FDAD9" opacity="1.000000" stroke="none" 
	d="
M66.213860,65.198921 
	C62.970924,72.573296 59.727989,79.947670 56.364651,87.595825 
	C52.364204,87.169594 50.655224,85.007820 51.967590,80.660103 
	C54.100716,73.593323 59.032261,68.760895 65.458801,64.860641 
	C65.932434,64.925102 66.213860,65.198921 66.213860,65.198921 
z"/>
<path fill="#6CD9D8" opacity="1.000000" stroke="none" 
	d="
M123.877357,53.955471 
	C131.201141,57.266289 135.853638,67.196671 134.753159,75.340584 
	C129.936630,69.452621 124.774590,63.142292 119.114891,56.223602 
	C120.280502,55.616085 121.886147,54.779221 123.877357,53.955471 
z"/>
<path fill="#65D7D6" opacity="1.000000" stroke="none" 
	d="
M104.748466,51.296547 
	C96.143242,50.187466 87.850235,51.346722 79.936470,54.844860 
	C77.052803,50.071083 78.752113,46.008507 84.438065,46.301739 
	C91.247673,46.652924 97.963234,48.827778 104.854958,50.613358 
	C104.990395,51.013874 104.748466,51.296547 104.748466,51.296547 
z"/>
<path fill="#6FDAD9" opacity="1.000000" stroke="none" 
	d="
M93.141129,87.355316 
	C96.106552,84.353836 99.092392,84.935730 101.076828,87.449524 
	C102.003822,88.623795 101.776932,91.801056 100.799690,93.143631 
	C99.117882,95.454178 95.932777,96.044914 93.925179,93.704475 
	C92.773323,92.361656 93.168304,89.691971 93.141129,87.355316 
z"/>
<path fill="#65D7D6" opacity="1.000000" stroke="none" 
	d="
M107.542938,51.102257 
	C107.877083,51.127281 107.953102,51.574558 107.992325,51.797932 
	C107.115776,51.932354 106.200012,51.843403 105.016357,51.525497 
	C104.748466,51.296547 104.990395,51.013874 105.111908,50.869781 
	C105.891876,50.842873 106.550339,50.960056 107.542938,51.102257 
z"/>
<path fill="#6FDAD9" opacity="1.000000" stroke="none" 
	d="
M124.051666,118.148811 
	C124.225471,118.385590 124.140648,118.627327 124.055832,118.869064 
	C123.968239,118.630630 123.880638,118.392197 124.051666,118.148811 
z"/>
<path fill="#6FDAD9" opacity="1.000000" stroke="none" 
	d="
M127.008743,117.015587 
	C126.881149,117.245453 126.706223,117.425346 126.531296,117.605247 
	C126.517532,117.402145 126.503769,117.199036 126.676239,116.932930 
	C126.862480,116.869926 126.961418,116.965622 127.008743,117.015587 
z"/>
<path fill="#6FDAD9" opacity="1.000000" stroke="none" 
	d="
M65.794388,64.785492 
	C65.960449,64.745209 66.264549,64.844521 66.391251,65.071381 
	C66.213860,65.198921 65.932434,64.925102 65.794388,64.785492 
z"/>
</svg>