<svg width="48" height="48" fill="none" xmlns="http://www.w3.org/2000/svg" class="advantageBannerIcon__1Fz-"><path d="M44.095 12.372c8.614 9.318 1.384 10.945-6.346 18.916-7.73 7.972-13.126 12.63-21.646 9.952-8.52-2.679-21.465-14.952-13.735-22.924 7.73-7.971 33.113-15.263 41.727-5.944z" fill="#DEECED"></path><rect x="11" y="7" width="24" height="24" rx="2" fill="#fff"></rect><path fill-rule="evenodd" clip-rule="evenodd" d="M17 4a1 1 0 011 1v1h10V5a1 1 0 112 0v1h2.75A3.25 3.25 0 0136 9.25v19.5A3.25 3.25 0 0132.75 32h-19.5A3.25 3.25 0 0110 28.75V9.25A3.25 3.25 0 0113.25 6H16V5a1 1 0 011-1zm11 4v1a1 1 0 102 0V8h2.75c.69 0 1.25.56 1.25 1.25V12H12V9.25c0-.69.56-1.25 1.25-1.25H16v1a1 1 0 102 0V8h10zm-16 6v14.75c0 .69.56 1.25 1.25 1.25h19.5c.69 0 1.25-.56 1.25-1.25V14H12z" fill="#2A2D32"></path></svg>