<svg width="48" height="48" fill="none" xmlns="http://www.w3.org/2000/svg" class="advantageBannerIcon__1Fz-"><path d="M44.095 12.232c8.614 9.319 1.384 10.945-6.346 18.917-7.73 7.971-13.126 12.63-21.646 9.951-8.52-2.678-21.465-14.952-13.735-22.923 7.73-7.972 33.113-15.263 41.727-5.945z" fill="#F6ECBB"></path><path d="M25.082 7.39l3.27 6.933a2.34 2.34 0 001.752 1.328l.008.002 7.297 1.109a.745.745 0 01.376 1.252l-.002.002-5.294 5.398-.004.004a2.447 2.447 0 00-.654 2.104v.001l1.25 7.62.001.01.002.01a.708.708 0 01-.66.837.597.597 0 01-.275-.076l-.006-.003-6.541-3.598H25.6a2.275 2.275 0 00-2.202 0l-6.541 3.598-.006.003a.597.597 0 01-.276.076.707.707 0 01-.66-.837l.003-.01.001-.01 1.25-7.62v-.001a2.447 2.447 0 00-.654-2.104l-.005-.004-5.294-5.398-.001-.002a.745.745 0 01.376-1.252l7.297-1.11h.008a2.34 2.34 0 001.752-1.33l3.27-6.931.004-.008.003-.008A.633.633 0 0124.5 7a.633.633 0 01.575.375l.003.008.004.008z" fill="#fff" stroke="#2A2D32" stroke-width="2"></path></svg>