<svg viewBox="0 0 22 26" fill="#fff" xmlns="http://www.w3.org/2000/svg" class="socialIcon__148q"><path d="M21.988 6.51a6.158 6.158 0 01-3.812-1.323 6.6 6.6 0 01-2.398-3.958A6.837 6.837 0 0115.656 0h-4.089v11.6l-.005 6.354c0 1.698-1.065 3.139-2.542 3.645a3.591 3.591 0 01-3.066-.35 3.871 3.871 0 01-1.81-3.237c-.03-2.148 1.642-3.9 3.71-3.9.407 0 .8.07 1.166.195v-4.31c-.387-.059-.78-.09-1.179-.09-2.263 0-4.378.977-5.891 2.736a8.123 8.123 0 00-1.935 4.804c-.139 2.337.685 4.558 2.282 6.197.234.24.48.464.738.67A7.659 7.659 0 007.841 26a7.712 7.712 0 005.545-2.357 8.1 8.1 0 002.296-5.656l-.021-9.488a10.24 10.24 0 002.296 1.39c1.283.562 2.643.847 4.043.846V6.51c.001.001-.01.001-.012.001z"></path></svg>