<svg viewBox="0 0 29 20" fill="#fff" xmlns="http://www.w3.org/2000/svg" class="socialIcon__148q"><path fill-rule="evenodd" clip-rule="evenodd" d="M11.556 14.164v-7.83l7.333 3.836-7.333 3.994zM27.879 4.44s-.27-1.916-1.097-2.76C25.732.574 24.556.568 24.016.504 20.154.222 14.361.222 14.361.222h-.012s-5.793 0-9.655.282c-.54.064-1.716.07-2.766 1.177-.827.844-1.097 2.76-1.097 2.76s-.275 2.25-.275 4.5v2.11c0 2.25.275 4.499.275 4.499s.27 1.916 1.097 2.76c1.05 1.107 2.43 1.072 3.043 1.188 2.208.214 9.384.28 9.384.28s5.799-.01 9.661-.29c.54-.065 1.716-.07 2.766-1.178.828-.844 1.097-2.76 1.097-2.76s.275-2.25.275-4.5V8.94c0-2.25-.275-4.499-.275-4.499z"></path></svg>